<svg xmlns="http://www.w3.org/2000/svg" viewBox="0 0 760 180" role="img" aria-label="StudyForge logo">
  <defs>
    <linearGradient id="mark" x1="26" y1="22" x2="150" y2="158" gradientUnits="userSpaceOnUse">
      <stop stop-color="#38bdf8"/>
      <stop offset=".55" stop-color="#2563eb"/>
      <stop offset="1" stop-color="#0f172a"/>
    </linearGradient>
  </defs>
  <rect x="18" y="18" width="144" height="144" rx="34" fill="#020617"/>
  <path d="M48 126c20-46 44-70 72-70 24 0 40 18 54 56 6 18-6 36-25 36H68c-17 0-27-11-20-22Z" fill="url(#mark)"/>
  <path d="M62 44h58c18 0 32 14 32 32v74H92c-17 0-30-13-30-30V44Z" fill="#f8fafc"/>
  <path d="M80 70h52v10H80V70Zm0 24h52v10H80V94Zm0 24h34v10H80v-10Z" fill="#1d4ed8"/>
  <path d="M140 76h-14v58H80v14h60V76Z" fill="#0891b2"/>
  <path d="m122 34 7 14 15 2-11 11 3 15-14-7-14 7 3-15-11-11 15-2 7-14Z" fill="#f59e0b"/>
  <text x="196" y="86" fill="#0f172a" font-family="Arial, Helvetica, sans-serif" font-size="54" font-weight="800">StudyForge</text>
  <text x="199" y="126" fill="#475569" font-family="Arial, Helvetica, sans-serif" font-size="22" font-weight="600">Offline-first AI study companion</text>
</svg>
